# xmcd
#
# Track frame offsets: 
#        150
#        59597
#        78704
#        94537
#        127444
#        185324
#
# Disc length: 3145 seconds
#
# Revision: 0
# Processed by: cddbd v1.5.2PL0 Copyright (c) Steve Scherf et al.
# Submitted via: ExactAudioCopy v1.0b1
#
DISCID=530c4706
DTITLE=Stevie Ray Vaughan - Best Little Blues in Texas
DYEAR=1983
DGENRE=Blues
TTITLE0=Crosscut Saw (live)
TTITLE1=Pride and Joy (live)
TTITLE2=So Excited (live)
TTITLE3=The Things I Used To Do
TTITLE4=Tin Pan Alley (live)
TTITLE5=Voodoo Chile (live)
EXTD=
EXTT0=
EXTT1=
EXTT2=
EXTT3=
EXTT4=
EXTT5=
PLAYORDER=
